<svg width="32" height="26" xmlns="http://www.w3.org/2000/svg"><g fill="none"><path d="M12.796 26c2.976 0 5.262-.672 6.858-2.016 1.596-1.344 2.394-3.228 2.394-5.652 0-1.248-.336-2.37-1.008-3.366-.672-.996-1.5-1.71-2.484-2.142.744-.384 1.422-.996 2.034-1.836.612-.84.918-1.836.918-2.988 0-2.304-.744-4.08-2.232-5.328C17.788 1.424 15.52.8 12.472.8H1.348C1.084.8.868.89.7 1.07a.94.94 0 00-.252.666V25.1c0 .24.09.45.27.63.18.18.39.27.63.27h11.448zm-1.08-15.228h-4.5V5.66h4.5c.912 0 1.602.234 2.07.702.468.468.702 1.074.702 1.818 0 .768-.24 1.392-.72 1.872-.48.48-1.164.72-2.052.72zm.324 10.368H7.216v-5.652h4.824c.912 0 1.632.27 2.16.81.528.54.792 1.218.792 2.034 0 .792-.258 1.458-.774 1.998s-1.242.81-2.178.81z" fill="#282642"/><path d="M30.868 26c.264 0 .48-.09.648-.27a.894.894 0 00.252-.63v-4.752a.94.94 0 00-.252-.666.847.847 0 00-.648-.27h-4.752a.905.905 0 00-.666.27.905.905 0 00-.27.666V25.1c0 .264.09.48.27.648a.94.94 0 00.666.252h4.752z" fill="#FF4C60"/></g></svg>